<?versión xml="1.0" codificación="utf-8"?>
<svg xmlns="http://www.w3.org/2000/svg">
  <defs>
    <!-- USER ICON -->
    <symbol id='user-icon' viewBox="0 0 24 24" fill='white'>
        <path d="m16,23.314c-1.252.444-2.598.686-4,.686s-2.748-.242-4-.686v-2.314c0-2.206,1.794-4,4-4s4,1.794,4,4v2.314ZM12,7c-1.103,0-2,.897-2,2s.897,2,2,2,2-.897,2-2-.897-2-2-2Zm12,5c0,4.433-2.416,8.311-6,10.389v-1.389c0-3.309-2.691-6-6-6s-6,2.691-6,6v1.389C2.416,20.311,0,16.433,0,12,0,5.383,5.383,0,12,0s12,5.383,12,12Zm-8-3c0-2.206-1.794-4-4-4s-4,1.794-4,4,1.794,4,4,4,4-1.794,4-4Z"/>
    <symbol>
    <!-- LOGO ICON -->
    <symbol id='logo-icon' viewBox="0 0 24 24" fill='white'>
        <path d="M19.9001 2.30719C19.7392 1.8976 19.1616 1.8976 19.0007 2.30719L18.5703 3.40247C18.5212 3.52752 18.4226 3.62651 18.298 3.67583L17.2067 4.1078C16.7986 4.26934 16.7986 4.849 17.2067 5.01054L18.298 5.44252C18.4226 5.49184 18.5212 5.59082 18.5703 5.71587L19.0007 6.81115C19.1616 7.22074 19.7392 7.22074 19.9001 6.81116L20.3305 5.71587C20.3796 5.59082 20.4782 5.49184 20.6028 5.44252L21.6941 5.01054C22.1022 4.849 22.1022 4.26934 21.6941 4.1078L20.6028 3.67583C20.4782 3.62651 20.3796 3.52752 20.3305 3.40247L19.9001 2.30719Z" fill="#ffffff"/> <path d="M16.0328 8.12967C15.8718 7.72009 15.2943 7.72009 15.1333 8.12967L14.9764 8.52902C14.9273 8.65407 14.8287 8.75305 14.7041 8.80237L14.3062 8.95987C13.8981 9.12141 13.8981 9.70107 14.3062 9.86261L14.7041 10.0201C14.8287 10.0694 14.9273 10.1684 14.9764 10.2935L15.1333 10.6928C15.2943 11.1024 15.8718 11.1024 16.0328 10.6928L16.1897 10.2935C16.2388 10.1684 16.3374 10.0694 16.462 10.0201L16.8599 9.86261C17.268 9.70107 17.268 9.12141 16.8599 8.95987L16.462 8.80237C16.3374 8.75305 16.2388 8.65407 16.1897 8.52902L16.0328 8.12967Z" fill="#ffffff"/> <path d="M12 22C17.5228 22 22 17.5228 22 12C22 11.5373 21.3065 11.4608 21.0672 11.8568C19.9289 13.7406 17.8615 15 15.5 15C11.9101 15 9 12.0899 9 8.5C9 6.13845 10.2594 4.07105 12.1432 2.93276C12.5392 2.69347 12.4627 2 12 2C6.47715 2 2 6.47715 2 12C2 17.5228 6.47715 22 12 22Z" fill="#ffffff"/>
    </symbol>

    <!-- FLECHA ICON -->
    <symbol id='flecha-icon' viewBox="0 0 24 24" fill='#40434E'>
        <path d="M4 12H20M20 12L16 8M20 12L16 16" stroke="#40434E" stroke-width="2" stroke-linecap="round" stroke-linejoin="round"></path>
    </symbol>

    <!-- DOCUMENTO ICON -->
    <symbol id='documento-icon' viewBox="0 0 226.834 226.834" fill='white'>
        <path d="M80.197,44.939v-9.746c0-1.761,1.433-3.193,3.193-3.193h60.053c1.761,0,3.193,1.433,3.193,3.193v9.746 c0,1.761-1.433,3.193-3.193,3.193H83.391C81.63,48.133,80.197,46.7,80.197,44.939z M131.841,17c-0.768-9.5-8.729-17-18.424-17 S95.761,7.5,94.993,17H131.841z M192.309,55.334v151.333c0,11.12-9.047,20.167-20.167,20.167H54.692 c-11.12,0-20.167-9.047-20.167-20.167V55.334c0-11.12,9.047-20.167,20.167-20.167h10.506c0,0.009-0.001,0.018-0.001,0.026v9.746 c0,10.032,8.162,18.193,18.193,18.193h60.053c10.032,0,18.193-8.161,18.193-18.193v-9.746c0-0.009-0.001-0.018-0.001-0.026h10.506 C183.262,35.167,192.309,44.214,192.309,55.334z M88.183,143.449c-3.526-2.173-8.147-1.077-10.32,2.449l-7.092,11.504l-3.661-2.884 c-3.252-2.563-7.97-2.002-10.532,1.252c-2.563,3.255-2.002,7.97,1.252,10.533l10.271,8.089c1.332,1.049,2.969,1.607,4.64,1.607 c0.436,0,0.875-0.038,1.311-0.115c2.105-0.374,3.952-1.629,5.074-3.449l11.506-18.666C92.806,150.243,91.709,145.623,88.183,143.449 z M88.183,89.449c-3.526-2.174-8.147-1.076-10.32,2.449l-7.092,11.504l-3.661-2.884c-3.252-2.562-7.97-2.002-10.532,1.252 c-2.563,3.255-2.002,7.97,1.252,10.533l10.271,8.089c1.332,1.049,2.969,1.607,4.64,1.607c0.436,0,0.875-0.038,1.311-0.115 c2.105-0.374,3.952-1.629,5.074-3.449L90.632,99.77C92.806,96.243,91.709,91.623,88.183,89.449z M165.858,168.5 c0-4.143-3.357-7.5-7.5-7.5h-49c-4.142,0-7.5,3.357-7.5,7.5s3.358,7.5,7.5,7.5h49C162.501,176,165.858,172.643,165.858,168.5z M165.858,114.5c0-4.143-3.357-7.5-7.5-7.5h-49c-4.142,0-7.5,3.357-7.5,7.5s3.358,7.5,7.5,7.5h49 C162.501,122,165.858,118.643,165.858,114.5z"></path>
    </symbol>

    
    <!-- GRAFICO ICON -->
    <symbol id='graph-icon' viewBox="-1 0 24 24" fill='white'>
        <path fill-rule="evenodd" clip-rule="evenodd" d="M3 13C4.65685 13 6 14.3431 6 16V21C6 22.6569 4.65685 24 3 24C1.34315 24 0 22.6569 0 21V16C0 14.3431 1.34315 13 3 13zM11 0C12.6569 0 14 1.34315 14 3V21C14 22.6569 12.6569 24 11 24C9.3431 24 8 22.6569 8 21V3C8 1.34315 9.3431 0 11 0zM19 7C20.6569 7 22 8.34315 22 10V21C22 22.6569 20.6569 24 19 24C17.3431 24 16 22.6569 16 21V10C16 8.34315 17.3431 7 19 7z" fill="#ffffff"></path>
    </symbol>

    <!-- ESTRELLA ICON -->
    <symbol id='spark-icon' viewBox="0 0 512 512" fill='white'>
        <path d="M208,512a24.84,24.84,0,0,1-23.34-16l-39.84-103.6a16.06,16.06,0,0,0-9.19-9.19L32,343.34a25,25,0,0,1,0-46.68l103.6-39.84a16.06,16.06,0,0,0,9.19-9.19L184.66,144a25,25,0,0,1,46.68,0l39.84,103.6a16.06,16.06,0,0,0,9.19,9.19l103,39.63A25.49,25.49,0,0,1,400,320.52a24.82,24.82,0,0,1-16,22.82l-103.6,39.84a16.06,16.06,0,0,0-9.19,9.19L231.34,496A24.84,24.84,0,0,1,208,512Zm66.85-254.84h0Z"></path><path d="M88,176a14.67,14.67,0,0,1-13.69-9.4L57.45,122.76a7.28,7.28,0,0,0-4.21-4.21L9.4,101.69a14.67,14.67,0,0,1,0-27.38L53.24,57.45a7.31,7.31,0,0,0,4.21-4.21L74.16,9.79A15,15,0,0,1,86.23.11,14.67,14.67,0,0,1,101.69,9.4l16.86,43.84a7.31,7.31,0,0,0,4.21,4.21L166.6,74.31a14.67,14.67,0,0,1,0,27.38l-43.84,16.86a7.28,7.28,0,0,0-4.21,4.21L101.69,166.6A14.67,14.67,0,0,1,88,176Z"></path><path d="M400,256a16,16,0,0,1-14.93-10.26l-22.84-59.37a8,8,0,0,0-4.6-4.6l-59.37-22.84a16,16,0,0,1,0-29.86l59.37-22.84a8,8,0,0,0,4.6-4.6L384.9,42.68a16.45,16.45,0,0,1,13.17-10.57,16,16,0,0,1,16.86,10.15l22.84,59.37a8,8,0,0,0,4.6,4.6l59.37,22.84a16,16,0,0,1,0,29.86l-59.37,22.84a8,8,0,0,0-4.6,4.6l-22.84,59.37A16,16,0,0,1,400,256Z"></path>
    </symbol>
    
    <!-- NO IMAGE -->
    <symbol id='no-image' viewBox="0 0 24 24" fill='white'>
        <polygon points="24 1.414 22.586 0 12 10.586 1.414 0 0 1.414 10.586 12 0 22.586 1.414 24 12 13.414 22.586 24 24 22.586 13.414 12 24 1.414"/>
    </symbol>
  </defs>
</svg>